<svg xmlns="http://www.w3.org/2000/svg" width="1500" height="1500" fill="none"><path fill="#000" d="M1299.66 688.652c7.91.001 14.32 6.409 14.32 14.315v99.597c0 3.328-2.7 6.029-6.03 6.03-273.01 0-494.328 221.316-494.329 494.336 0 3.32-2.702 6.02-6.029 6.03H702.27c-7.909 0-14.321-6.42-14.321-14.33v-266.88l71.637-55.006a1231.428 1231.428 0 0 0 226.775-226.781l44.009-57.311h269.29ZM1016.98 409.904c5.7-4.376 13.76-3.845 18.84 1.237l50.85 50.847c5.08 5.083 5.61 13.144 1.23 18.844L904.207 720.07a1159.82 1159.82 0 0 1-213.592 213.598L451.371 1117.36c-5.7 4.38-13.761 3.85-18.844-1.23l-50.847-50.85a14.312 14.312 0 0 1-1.231-18.84l183.692-239.247a1159.84 1159.84 0 0 1 213.597-213.591l239.242-183.698ZM797.713 189c7.907 0 14.318 6.408 14.32 14.314v259.43l-77.988 59.877A1231.426 1231.426 0 0 0 507.27 749.396l-45.997 59.907H200.32c-7.907-.001-14.32-6.413-14.32-14.321v-99.591a6.032 6.032 0 0 1 6.029-6.03c273.013 0 494.331-221.32 494.332-494.332a6.034 6.034 0 0 1 6.03-6.029h105.322Z"/></svg>